<mxfile host="app.diagrams.net" modified="2024-01-18T08:19:10.850Z" agent="Mozilla/5.0 (Windows NT 10.0; Win64; x64) AppleWebKit/537.36 (KHTML, like Gecko) Chrome/120.0.0.0 Safari/537.36" etag="oS7emU3MpfsThwaLrX99" version="22.1.18" type="github">
  <diagram id="C5RBs43oDa-KdzZeNtuy" name="Page-1">
    <mxGraphModel dx="850" dy="372" grid="1" gridSize="10" guides="1" tooltips="1" connect="1" arrows="1" fold="1" page="1" pageScale="1" pageWidth="827" pageHeight="1169" math="0" shadow="0">
      <root>
        <mxCell id="WIyWlLk6GJQsqaUBKTNV-0" />
        <mxCell id="WIyWlLk6GJQsqaUBKTNV-1" parent="WIyWlLk6GJQsqaUBKTNV-0" />
        <mxCell id="JiNuYsB2pnCpubG1rUVZ-7" style="edgeStyle=orthogonalEdgeStyle;rounded=0;orthogonalLoop=1;jettySize=auto;html=1;exitX=1;exitY=0;exitDx=0;exitDy=0;entryX=0;entryY=0.5;entryDx=0;entryDy=0;" edge="1" parent="WIyWlLk6GJQsqaUBKTNV-1" source="JiNuYsB2pnCpubG1rUVZ-2" target="JiNuYsB2pnCpubG1rUVZ-3">
          <mxGeometry relative="1" as="geometry">
            <Array as="points">
              <mxPoint x="173" y="170" />
              <mxPoint x="280" y="170" />
            </Array>
          </mxGeometry>
        </mxCell>
        <mxCell id="JiNuYsB2pnCpubG1rUVZ-9" value="&lt;span style=&quot;font-size: 18px;&quot;&gt;3&lt;/span&gt;" style="edgeLabel;html=1;align=center;verticalAlign=middle;resizable=0;points=[];" vertex="1" connectable="0" parent="JiNuYsB2pnCpubG1rUVZ-7">
          <mxGeometry x="-0.1455" y="1" relative="1" as="geometry">
            <mxPoint x="27" as="offset" />
          </mxGeometry>
        </mxCell>
        <mxCell id="JiNuYsB2pnCpubG1rUVZ-10" style="edgeStyle=orthogonalEdgeStyle;rounded=0;orthogonalLoop=1;jettySize=auto;html=1;exitX=1;exitY=1;exitDx=0;exitDy=0;entryX=0;entryY=0.5;entryDx=0;entryDy=0;" edge="1" parent="WIyWlLk6GJQsqaUBKTNV-1" source="JiNuYsB2pnCpubG1rUVZ-2" target="JiNuYsB2pnCpubG1rUVZ-4">
          <mxGeometry relative="1" as="geometry">
            <Array as="points">
              <mxPoint x="173" y="315" />
            </Array>
          </mxGeometry>
        </mxCell>
        <mxCell id="JiNuYsB2pnCpubG1rUVZ-37" value="&lt;font style=&quot;font-size: 18px;&quot;&gt;11&lt;/font&gt;" style="edgeLabel;html=1;align=center;verticalAlign=middle;resizable=0;points=[];" vertex="1" connectable="0" parent="JiNuYsB2pnCpubG1rUVZ-10">
          <mxGeometry x="0.2265" y="2" relative="1" as="geometry">
            <mxPoint as="offset" />
          </mxGeometry>
        </mxCell>
        <mxCell id="JiNuYsB2pnCpubG1rUVZ-15" style="edgeStyle=orthogonalEdgeStyle;rounded=0;orthogonalLoop=1;jettySize=auto;html=1;exitX=1;exitY=0.5;exitDx=0;exitDy=0;entryX=0;entryY=0.5;entryDx=0;entryDy=0;" edge="1" parent="WIyWlLk6GJQsqaUBKTNV-1" source="JiNuYsB2pnCpubG1rUVZ-2" target="JiNuYsB2pnCpubG1rUVZ-14">
          <mxGeometry relative="1" as="geometry" />
        </mxCell>
        <mxCell id="JiNuYsB2pnCpubG1rUVZ-39" value="&lt;font style=&quot;font-size: 18px;&quot;&gt;101&lt;/font&gt;" style="edgeLabel;html=1;align=center;verticalAlign=middle;resizable=0;points=[];" vertex="1" connectable="0" parent="JiNuYsB2pnCpubG1rUVZ-15">
          <mxGeometry x="-0.2182" y="-3" relative="1" as="geometry">
            <mxPoint as="offset" />
          </mxGeometry>
        </mxCell>
        <mxCell id="JiNuYsB2pnCpubG1rUVZ-2" value="&lt;font style=&quot;font-size: 18px;&quot;&gt;1&lt;/font&gt;" style="ellipse;whiteSpace=wrap;html=1;aspect=fixed;" vertex="1" parent="WIyWlLk6GJQsqaUBKTNV-1">
          <mxGeometry x="130" y="220" width="50" height="50" as="geometry" />
        </mxCell>
        <mxCell id="JiNuYsB2pnCpubG1rUVZ-19" style="edgeStyle=orthogonalEdgeStyle;rounded=0;orthogonalLoop=1;jettySize=auto;html=1;exitX=1;exitY=0.5;exitDx=0;exitDy=0;entryX=0.5;entryY=0;entryDx=0;entryDy=0;" edge="1" parent="WIyWlLk6GJQsqaUBKTNV-1" source="JiNuYsB2pnCpubG1rUVZ-3" target="JiNuYsB2pnCpubG1rUVZ-5">
          <mxGeometry relative="1" as="geometry" />
        </mxCell>
        <mxCell id="JiNuYsB2pnCpubG1rUVZ-27" value="&lt;font style=&quot;font-size: 18px;&quot;&gt;4&lt;/font&gt;" style="edgeLabel;html=1;align=center;verticalAlign=middle;resizable=0;points=[];" vertex="1" connectable="0" parent="JiNuYsB2pnCpubG1rUVZ-19">
          <mxGeometry x="-0.386" y="-1" relative="1" as="geometry">
            <mxPoint x="-8" y="-1" as="offset" />
          </mxGeometry>
        </mxCell>
        <mxCell id="JiNuYsB2pnCpubG1rUVZ-3" value="&lt;font style=&quot;font-size: 18px;&quot;&gt;2&lt;/font&gt;" style="ellipse;whiteSpace=wrap;html=1;aspect=fixed;" vertex="1" parent="WIyWlLk6GJQsqaUBKTNV-1">
          <mxGeometry x="290" y="145" width="50" height="50" as="geometry" />
        </mxCell>
        <mxCell id="JiNuYsB2pnCpubG1rUVZ-18" style="edgeStyle=orthogonalEdgeStyle;rounded=0;orthogonalLoop=1;jettySize=auto;html=1;exitX=1;exitY=0.5;exitDx=0;exitDy=0;entryX=0.5;entryY=1;entryDx=0;entryDy=0;" edge="1" parent="WIyWlLk6GJQsqaUBKTNV-1" source="JiNuYsB2pnCpubG1rUVZ-4" target="JiNuYsB2pnCpubG1rUVZ-5">
          <mxGeometry relative="1" as="geometry" />
        </mxCell>
        <mxCell id="JiNuYsB2pnCpubG1rUVZ-35" value="&lt;font style=&quot;font-size: 18px;&quot;&gt;4&lt;/font&gt;" style="edgeLabel;html=1;align=center;verticalAlign=middle;resizable=0;points=[];" vertex="1" connectable="0" parent="JiNuYsB2pnCpubG1rUVZ-18">
          <mxGeometry x="-0.3901" y="-4" relative="1" as="geometry">
            <mxPoint x="-6" y="-4" as="offset" />
          </mxGeometry>
        </mxCell>
        <mxCell id="JiNuYsB2pnCpubG1rUVZ-4" value="&lt;font style=&quot;font-size: 18px;&quot;&gt;3&lt;/font&gt;" style="ellipse;whiteSpace=wrap;html=1;aspect=fixed;" vertex="1" parent="WIyWlLk6GJQsqaUBKTNV-1">
          <mxGeometry x="290" y="290" width="50" height="50" as="geometry" />
        </mxCell>
        <mxCell id="JiNuYsB2pnCpubG1rUVZ-5" value="&lt;span style=&quot;font-size: 18px;&quot;&gt;5&lt;/span&gt;" style="ellipse;whiteSpace=wrap;html=1;aspect=fixed;" vertex="1" parent="WIyWlLk6GJQsqaUBKTNV-1">
          <mxGeometry x="420" y="220" width="50" height="50" as="geometry" />
        </mxCell>
        <mxCell id="JiNuYsB2pnCpubG1rUVZ-6" value="일반도로+1&lt;br&gt;비포장도로+3&lt;br&gt;포트홀+2,&lt;br&gt;공사현장+10,&lt;br&gt;장애물+100" style="text;html=1;align=center;verticalAlign=middle;resizable=0;points=[];autosize=1;strokeColor=none;fillColor=none;" vertex="1" parent="WIyWlLk6GJQsqaUBKTNV-1">
          <mxGeometry x="265" y="38" width="100" height="90" as="geometry" />
        </mxCell>
        <mxCell id="JiNuYsB2pnCpubG1rUVZ-16" style="edgeStyle=orthogonalEdgeStyle;rounded=0;orthogonalLoop=1;jettySize=auto;html=1;exitX=1;exitY=0.5;exitDx=0;exitDy=0;entryX=0;entryY=0.5;entryDx=0;entryDy=0;" edge="1" parent="WIyWlLk6GJQsqaUBKTNV-1" source="JiNuYsB2pnCpubG1rUVZ-14" target="JiNuYsB2pnCpubG1rUVZ-5">
          <mxGeometry relative="1" as="geometry" />
        </mxCell>
        <mxCell id="JiNuYsB2pnCpubG1rUVZ-32" value="&lt;font style=&quot;font-size: 18px;&quot;&gt;1&lt;/font&gt;" style="edgeLabel;html=1;align=center;verticalAlign=middle;resizable=0;points=[];" vertex="1" connectable="0" parent="JiNuYsB2pnCpubG1rUVZ-16">
          <mxGeometry x="-0.0238" y="-4" relative="1" as="geometry">
            <mxPoint x="1" y="-4" as="offset" />
          </mxGeometry>
        </mxCell>
        <mxCell id="JiNuYsB2pnCpubG1rUVZ-14" value="&lt;span style=&quot;font-size: 18px;&quot;&gt;4&lt;/span&gt;" style="ellipse;whiteSpace=wrap;html=1;aspect=fixed;" vertex="1" parent="WIyWlLk6GJQsqaUBKTNV-1">
          <mxGeometry x="290" y="220" width="50" height="50" as="geometry" />
        </mxCell>
        <mxCell id="JiNuYsB2pnCpubG1rUVZ-22" value="포트홀" style="text;html=1;align=center;verticalAlign=middle;resizable=0;points=[];autosize=1;strokeColor=none;fillColor=none;" vertex="1" parent="WIyWlLk6GJQsqaUBKTNV-1">
          <mxGeometry x="190" y="128" width="60" height="30" as="geometry" />
        </mxCell>
        <mxCell id="JiNuYsB2pnCpubG1rUVZ-24" value="비포장도로" style="text;html=1;align=center;verticalAlign=middle;resizable=0;points=[];autosize=1;strokeColor=none;fillColor=none;" vertex="1" parent="WIyWlLk6GJQsqaUBKTNV-1">
          <mxGeometry x="340" y="128" width="80" height="30" as="geometry" />
        </mxCell>
        <mxCell id="JiNuYsB2pnCpubG1rUVZ-29" value="장애물" style="text;html=1;align=center;verticalAlign=middle;resizable=0;points=[];autosize=1;strokeColor=none;fillColor=none;" vertex="1" parent="WIyWlLk6GJQsqaUBKTNV-1">
          <mxGeometry x="190" y="210" width="60" height="30" as="geometry" />
        </mxCell>
        <mxCell id="JiNuYsB2pnCpubG1rUVZ-30" value="일반도로" style="text;html=1;align=center;verticalAlign=middle;resizable=0;points=[];autosize=1;strokeColor=none;fillColor=none;" vertex="1" parent="WIyWlLk6GJQsqaUBKTNV-1">
          <mxGeometry x="340" y="210" width="70" height="30" as="geometry" />
        </mxCell>
        <mxCell id="JiNuYsB2pnCpubG1rUVZ-33" value="공사현장" style="text;html=1;align=center;verticalAlign=middle;resizable=0;points=[];autosize=1;strokeColor=none;fillColor=none;" vertex="1" parent="WIyWlLk6GJQsqaUBKTNV-1">
          <mxGeometry x="185" y="280" width="70" height="30" as="geometry" />
        </mxCell>
        <mxCell id="JiNuYsB2pnCpubG1rUVZ-34" value="비포장도로" style="text;html=1;align=center;verticalAlign=middle;resizable=0;points=[];autosize=1;strokeColor=none;fillColor=none;" vertex="1" parent="WIyWlLk6GJQsqaUBKTNV-1">
          <mxGeometry x="340" y="280" width="80" height="30" as="geometry" />
        </mxCell>
        <mxCell id="JiNuYsB2pnCpubG1rUVZ-40" value="출발지" style="text;html=1;align=center;verticalAlign=middle;resizable=0;points=[];autosize=1;strokeColor=none;fillColor=none;" vertex="1" parent="WIyWlLk6GJQsqaUBKTNV-1">
          <mxGeometry x="80" y="230" width="60" height="30" as="geometry" />
        </mxCell>
        <mxCell id="JiNuYsB2pnCpubG1rUVZ-41" value="도착지" style="text;html=1;align=center;verticalAlign=middle;resizable=0;points=[];autosize=1;strokeColor=none;fillColor=none;" vertex="1" parent="WIyWlLk6GJQsqaUBKTNV-1">
          <mxGeometry x="460" y="230" width="60" height="30" as="geometry" />
        </mxCell>
      </root>
    </mxGraphModel>
  </diagram>
</mxfile>
